<svg id="svg5823" height="600" width="900" xmlns="http://www.w3.org/2000/svg" xmlns:xlink="http://www.w3.org/1999/xlink" xmlns:cc="http://creativecommons.org/ns#" xmlns:dc="http://purl.org/dc/elements/1.1/" xmlns:inkscape="http://www.inkscape.org/namespaces/inkscape" xmlns:rdf="http://www.w3.org/1999/02/22-rdf-syntax-ns#" xmlns:sodipodi="http://sodipodi.sourceforge.net/DTD/sodipodi-0.dtd" xmlns:svg="http://www.w3.org/2000/svg"><clipPath id="clipPath5778"><path id="rect5780" d="m930.011-79.228h480v480h-480z"/></clipPath><clipPath id="clipPath3061"><path id="rect3063" d="m16 556.362h480v480h-480z"/></clipPath><clipPath id="clipPath3448"><path id="rect3450" d="m16 556.362h480v480h-480z"/></clipPath><clipPath id="clipPath3470"><path id="rect3472" d="m16 556.362h480v480h-480z"/></clipPath><clipPath id="clipPath5670"><path id="rect5672" d="m-712 246.362h480v480h-480z"/></clipPath><clipPath id="clipPath5674"><path id="rect5676" d="m16 556.362h480v480h-480z"/></clipPath><clipPath id="clipPath5729"><path id="rect5731" d="m20.014 549.276h480v480h-480z"/></clipPath><clipPath id="clipPath5806"><path id="rect5808" d="m20.014 549.276h480v480h-480z"/></clipPath><clipPath id="clipPath4267"><path id="rect4269" d="m0 452.362h900v600h-900z"/></clipPath><g id="layer1" transform="translate(0 -452.362)"><g id="g5733"><path id="rect2999" d="m0 452.362h900v600h-900z" fill="#2b4896"/><g id="g5769" transform="matrix(1.875 0 0 1.25 -37.527 -234.233)"/><g id="g5759" transform="matrix(-1.875 0 0 1.25 1457.43 86.278)"/><g id="g4249" clip-path="url(#clipPath4267)"><g id="g5755" transform="matrix(1.875 0 0 1.25 -37.527 -234.233)"><path id="rect3435" d="m498.79506 514.95268-279.32259 286.20248h50.25v15.90625l264.69759-269.95248z" fill="#fff"/><path id="rect5381" d="m511.39777 519.54497-272.16634 276.04623 18.11667-.8v.875l263.47884-266.42123z" fill="#e32d3c"/></g><path id="path5781" d="m435.86008 792.2548-523.626929-361.18114 94.1547112 2.31544 1.0994031-19.8693 497.3468547 340.20855z" fill="#fff"/><path id="path5783" d="m455.73894 788.00007-510.920057-348.1647 37.942944.93308.06048-1.093 495.307313 335.74132z" fill="#e32d3c"/><g id="g4216" transform="matrix(-1.874 -.046 -.069 1.249 1496.188 87.426)"><path id="path4206" d="m498.79506 514.95268-279.32259 286.20248h50.25v15.90625l264.69759-269.95248z" fill="#fff" transform="matrix(.999 .037 .037 -.999 248.269 1329.643)"/><path id="path4208" d="m511.39777 519.54497-272.16634 276.04623 18.11667-.8v.875l263.47884-266.42123z" fill="#e32d3c" transform="matrix(.999 .037 .037 -.999 248.269 1329.643)"/><path id="path4210" d="m530.84167 518.31802-288.70286 281.32216h50.25v15.90625l274.07786-265.07216z" fill="#fff"/><path id="path4212" d="m541.31105 522.11031-281.54661 271.16591h20.25v.875l272.85911-261.54091z" fill="#e32d3c"/></g><path id="rect3001" d="m380 452.362h140v600h-140z" fill="#fff"/><path id="rect3003" d="m687.362-900h130v900h-130z" fill="#fff" transform="rotate(90)"/><g fill="#e32d3c"><path id="rect3005" d="m407.5 452.362h85v600h-85z"/><path id="rect3008" d="m712.362-900h80v900h-80z" transform="rotate(90)"/></g></g></g></g></svg>